<?xml version="1.0" standalone="no"?>
<!DOCTYPE svg PUBLIC "-//W3C//DTD SVG 20010904//EN"
 "http://www.w3.org/TR/2001/REC-SVG-20010904/DTD/svg10.dtd">
<svg version="1.0" xmlns="http://www.w3.org/2000/svg"
 width="150.000000pt" height="150.000000pt" viewBox="0 0 300.000000 300.000000"
 preserveAspectRatio="xMidYMid meet">
<metadata>
Created by potrace 1.10, written by Peter Selinger 2001-2011
</metadata>
<g transform="translate(0.000000,300.000000) scale(0.050000,-0.050000)"
fill="#0091ff" stroke="none">
<path d="M2582 5959 c-567 -78 -1093 -349 -1427 -735 -87 -100 -161 -74 -279
100 -203 301 -675 -218 -576 -634 34 -144 25 -328 -20 -385 -50 -63 -51 -155
-2 -251 l38 -74 -43 0 c-75 0 -165 -72 -215 -173 -66 -133 -72 -714 -9 -927
139 -475 265 -659 470 -692 50 -8 81 -24 81 -41 0 -113 184 -320 343 -386 116
-48 157 -110 157 -240 0 -50 70 -198 155 -327 30 -47 65 -103 77 -124 12 -22
110 -115 219 -206 222 -185 231 -198 292 -394 128 -416 261 -470 1151 -470
891 1 1036 59 1155 460 58 197 72 216 280 387 202 166 434 480 460 623 44 234
55 270 89 270 104 0 316 200 375 355 24 63 43 85 75 85 157 1 287 99 367 280
297 668 283 1434 -28 1510 l-82 20 38 70 c49 92 47 172 -9 277 l-47 87 36 143
c90 358 33 638 -160 786 -134 102 -213 80 -399 -111 -125 -129 -193 -119 -351
51 -482 518 -1363 784 -2211 666z m708 -49 c888 -75 1626 -599 1780 -1265 52
-221 47 -224 -113 -77 -147 136 -319 234 -478 270 -168 39 -212 29 -386 -86
-241 -160 -523 -274 -748 -303 -118 -14 -114 2 -51 -224 52 -188 195 -301 349
-277 87 14 90 10 43 -61 -116 -178 -24 -327 202 -327 259 0 524 -93 650 -228
50 -53 82 -66 82 -34 0 10 -40 62 -88 115 l-88 98 38 47 c149 184 -46 504
-345 566 -120 25 -143 42 -82 63 19 7 107 57 195 112 88 55 216 119 285 142
l125 42 110 -50 c60 -28 161 -87 223 -132 l113 -81 -4 -155 c-6 -206 -63 -418
-185 -682 -55 -118 -57 -130 -27 -163 30 -33 28 -35 -34 -22 -70 15 -233 -7
-261 -35 -10 -10 49 -16 129 -15 341 5 586 -296 585 -718 -2 -456 -228 -676
-607 -589 -70 16 -94 14 -120 -9 -104 -94 -321 -77 -493 40 -71 48 -72 48
-125 11 -119 -83 -242 -68 -394 48 -61 47 -90 59 -90 39 0 -99 -463 -166 -762
-110 -157 29 -218 58 -218 104 0 35 -7 33 -76 -20 -142 -113 -266 -138 -388
-78 l-102 51 -64 -49 c-147 -112 -388 -131 -490 -38 -25 23 -54 24 -160 6
-242 -40 -392 36 -499 254 -243 498 139 1171 599 1054 44 -11 80 -13 80 -4 0
25 -118 60 -204 60 -72 0 -76 3 -56 41 18 33 2 88 -90 310 -211 507 -208 621
24 775 292 193 370 187 760 -54 169 -105 195 -132 126 -132 -297 0 -539 -326
-419 -562 l41 -81 -81 -88 c-116 -126 -100 -145 34 -39 158 125 365 190 605
190 237 0 320 135 201 328 l-38 63 115 0 c195 0 310 132 354 408 l13 78 -98
14 c-246 35 -498 139 -762 311 -257 169 -594 83 -891 -227 -123 -129 -127
-120 -63 128 174 669 834 1139 1749 1246 206 24 287 24 570 1z m2229 -631
c170 -124 221 -406 123 -693 -53 -158 -53 -175 8 -254 88 -116 69 -241 -45
-300 -117 -60 -216 -329 -257 -702 -28 -259 -83 -298 -248 -174 -158 118 -158
117 -82 310 82 205 124 358 151 543 l23 158 84 -76 c122 -110 124 -76 6 94
-90 131 -102 160 -102 250 0 114 -80 391 -148 516 -57 103 -48 126 52 142 66
11 92 29 149 109 57 79 125 128 189 136 7 1 50 -26 97 -59z m-4765 15 c24 -13
64 -55 90 -94 26 -38 77 -85 113 -103 91 -46 90 -40 34 -149 -54 -104 -119
-337 -152 -542 -15 -93 -40 -154 -99 -239 -100 -142 -101 -167 -5 -88 l75 62
13 -136 c16 -167 60 -325 152 -544 l72 -168 -105 -97 c-159 -146 -241 -133
-242 41 -1 135 -79 547 -115 609 -20 34 -75 85 -122 113 -146 86 -176 191
-102 352 38 84 39 104 18 306 -44 416 165 794 375 677z m1351 -717 c160 -80
363 -157 465 -175 101 -17 115 -142 30 -257 -55 -75 -90 -85 -72 -20 48 164
55 154 -203 279 -203 99 -408 233 -359 235 8 1 71 -27 139 -62z m1935 1 c-76
-59 -420 -250 -507 -280 -82 -29 -84 -41 -41 -198 l14 -50 -45 40 c-113 100
-143 290 -46 290 78 0 329 89 505 178 155 79 206 88 120 20z m360 43 c0 -10
-44 -41 -99 -68 -102 -52 -129 -25 -59 59 26 31 158 39 158 9z m-2632 -13 c33
-13 45 -68 15 -68 -9 0 -38 18 -63 40 -47 41 -23 55 48 28z m455 -392 c90 -51
94 -96 8 -119 -32 -8 -101 -58 -154 -110 -53 -52 -107 -96 -121 -99 -15 -2
-42 -10 -61 -18 -21 -9 -35 -5 -35 8 0 13 16 29 35 36 50 19 183 147 196 190
7 20 20 31 31 25 10 -7 14 18 7 60 -13 83 -9 85 94 27z m1706 25 c6 -10 2 -24
-10 -31 -40 -25 -9 -94 87 -194 103 -108 103 -118 -4 -153 -102 -35 -114 -30
-140 58 -13 45 -37 86 -53 92 -16 6 -24 18 -19 27 5 9 -4 21 -20 27 -69 27
-10 158 73 162 8 1 20 8 29 16 20 20 43 19 57 -4z m-1667 -399 c47 -159 28
-186 -142 -194 -133 -6 -256 -32 -365 -78 -19 -8 -35 -6 -35 5 0 42 240 125
362 125 142 0 160 24 114 153 -17 47 -26 90 -20 96 20 20 64 -34 86 -107z
m3557 1 c324 -235 45 -1493 -344 -1556 l-69 -11 -11 187 c-11 191 -50 317
-135 437 -48 67 -49 80 -10 80 97 0 149 101 169 331 39 459 202 675 400 532z
m-1380 -141 c2 -121 -68 -166 -172 -112 -38 20 -117 30 -237 30 -119 0 -170 7
-151 19 52 33 267 45 370 21 124 -28 149 -3 138 135 l-7 95 29 -60 c16 -33 30
-91 30 -128z m-3969 110 c83 -54 132 -200 150 -446 18 -232 57 -345 131 -374
25 -9 24 -17 -10 -51 -92 -92 -181 -364 -181 -554 0 -99 -7 -101 -154 -33
-154 71 -320 468 -364 866 -54 494 149 774 428 592z m1990 -2022 c181 -192
840 -190 1043 4 l54 50 110 -53 c134 -66 310 -78 368 -25 36 32 41 31 85 -16
99 -106 376 -116 475 -17 34 34 56 43 73 29 13 -11 62 -26 108 -34 46 -7 84
-16 84 -20 0 -225 -283 -650 -571 -858 -96 -70 -131 -110 -167 -194 -25 -58
-65 -146 -88 -194 -247 -510 -1999 -466 -2104 52 -27 135 -111 260 -226 338
-185 126 -297 242 -395 409 -76 130 -189 434 -166 446 96 50 191 62 218 28 77
-96 374 -90 483 11 46 43 53 44 95 16 71 -47 245 -35 357 25 117 63 108 63
164 3z"/>
<path d="M2801 4091 c-46 -49 -46 -52 -12 -89 40 -45 45 -170 12 -340 -20
-100 -14 -165 7 -100 5 15 25 73 43 128 73 222 39 496 -50 401z"/>
<path d="M3178 4086 c-29 -75 -10 -311 35 -431 35 -94 83 -137 55 -50 -59 185
-64 339 -11 392 35 35 35 38 -10 91 l-47 54 -22 -56z"/>
<path d="M2873 3450 c-17 -16 -46 -30 -65 -30 -19 0 -29 -6 -22 -13 7 -7 4
-29 -7 -50 -27 -49 -15 -47 75 15 88 60 166 58 302 -8 102 -49 105 -41 14 48
-80 77 -238 97 -297 38z"/>
<path d="M1960 3411 c-94 -20 -240 -79 -240 -98 0 -3 47 -6 105 -6 60 -1 89 5
66 12 -36 13 -36 15 -2 28 20 8 50 2 67 -12 26 -21 29 -20 15 3 -13 22 -9 26
17 16 20 -8 29 -6 22 6 -7 11 1 20 18 20 28 0 64 36 49 49 -4 3 -56 -5 -117
-18z"/>
<path d="M4039 3420 c-35 -22 41 -58 136 -65 14 -1 25 -9 25 -18 0 -9 25 -17
55 -16 l55 1 -60 33 c-94 53 -185 81 -211 65z"/>
<path d="M2870 3315 l-53 -46 171 -3 c187 -4 230 25 106 70 -99 36 -166 29
-224 -21z"/>
<path d="M2451 3261 c-39 -74 -39 -135 -1 -209 17 -32 28 -59 25 -61 -3 -2
-55 -28 -117 -57 -103 -50 -158 -100 -378 -346 -214 -239 -692 -236 -808 6
-73 154 -15 422 96 438 20 3 47 16 60 29 40 42 -114 -2 -162 -46 -162 -149
-83 -525 131 -621 265 -118 558 -27 843 263 235 239 281 263 508 263 132 0
220 -28 296 -95 31 -27 41 -26 90 7 224 151 578 107 720 -89 401 -555 1181
-514 1141 60 -9 136 -87 257 -165 257 -26 0 -53 9 -60 20 -18 29 -50 5 -38
-28 6 -14 31 -24 58 -21 114 12 183 -205 127 -395 -57 -188 -260 -270 -517
-208 -193 46 -248 86 -467 339 -60 71 -133 129 -195 158 -105 48 -113 63 -67
124 38 51 37 170 -2 227 -39 55 -79 60 -50 5 31 -58 25 -186 -11 -238 -50 -72
-215 -56 -224 22 -4 30 -14 55 -23 55 -25 0 -40 -51 -27 -98 8 -31 1 -42 -24
-42 -18 0 -39 18 -44 41 l-11 41 -38 -41 c-46 -49 -188 -56 -248 -13 -33 24
-41 23 -65 -5 -23 -29 -25 -26 -15 23 18 83 -10 109 -41 37 -31 -74 -178 -93
-230 -30 -30 36 -37 196 -10 252 29 62 -25 39 -57 -24z"/>
<path d="M3430 2100 c90 -151 415 -281 486 -195 16 20 -1 24 -77 18 -98 -7
-232 42 -314 116 -82 72 -114 93 -95 61z"/>
<path d="M2448 2058 c-85 -94 -203 -143 -319 -134 -88 8 -104 4 -86 -17 42
-51 222 -34 309 30 90 66 159 139 144 153 -5 6 -27 -9 -48 -32z"/>
<path d="M1860 1958 c-116 -77 -226 -105 -350 -91 l-100 11 58 -31 c117 -63
366 5 480 131 52 58 19 50 -88 -20z"/>
<path d="M4047 1952 c132 -113 411 -176 469 -107 16 20 -5 24 -99 18 -131 -7
-239 26 -346 108 -95 72 -114 58 -24 -19z"/>
<path d="M820 1990 c0 -99 309 -138 521 -67 150 51 131 74 -23 28 -143 -42
-309 -39 -413 8 -47 22 -85 35 -85 31z"/>
<path d="M4529 1962 c16 -26 182 -79 296 -95 101 -13 250 29 296 84 31 38 20
37 -63 -6 -87 -45 -317 -44 -425 2 -88 37 -121 42 -104 15z"/>
<path d="M5340 5222 c65 -18 71 -59 29 -193 -19 -61 -29 -116 -22 -122 17 -18
113 193 113 250 0 40 5 44 30 23 63 -53 31 -208 -85 -406 -38 -65 -64 -121
-59 -126 18 -19 140 156 188 268 l48 114 -9 -160 c-10 -184 -50 -299 -150
-438 -39 -54 -58 -94 -42 -89 42 14 164 202 205 315 118 335 34 585 -195 580
-75 -1 -88 -6 -51 -16z"/>
<path d="M5154 3814 c-24 -63 68 -74 179 -21 92 43 73 54 -41 23 -77 -20 -97
-20 -110 1 -13 21 -19 20 -28 -3z"/>
<path d="M5088 3602 c-45 -45 129 -59 206 -16 38 21 28 24 -77 24 -66 0 -124
-4 -129 -8z"/>
<path d="M5203 3366 c-69 -24 -97 -26 -138 -7 -54 24 -103 -9 -66 -46 27 -27
206 5 261 48 59 45 56 45 -57 5z"/>
<path d="M557 5130 c-188 -103 -204 -706 -23 -853 30 -24 32 -22 17 13 -51
128 -88 251 -100 330 l-14 90 50 -60 c72 -88 79 -57 29 137 -54 211 -35 258
66 162 l62 -59 -4 50 c-10 117 -1 142 60 163 33 11 55 29 49 39 -17 27 -132
20 -192 -12z"/>
<path d="M660 3792 c0 -6 25 -33 55 -61 54 -50 145 -70 145 -31 0 11 -21 20
-47 20 -26 0 -71 19 -100 41 -29 23 -53 37 -53 31z"/>
<path d="M730 3544 c41 -42 190 -82 190 -51 -1 48 -37 74 -67 49 -24 -20 -43
-18 -97 9 l-66 33 40 -40z"/>
<path d="M732 3397 c19 -31 170 -96 224 -97 26 0 41 9 34 20 -7 11 -32 20 -56
20 -24 1 -83 18 -130 40 -47 21 -80 29 -72 17z"/>
<path d="M5675 3678 c-55 -32 -96 -128 -124 -295 -14 -84 -32 -169 -40 -188
-13 -29 -5 -35 46 -35 104 0 124 -159 30 -234 -70 -56 -51 -77 37 -40 165 69
196 297 48 353 -73 28 -21 321 57 321 43 0 92 -58 105 -124 19 -94 41 -25 25
79 -20 130 -107 208 -184 163z"/>
<path d="M5615 2724 c-60 -7 -73 -38 -23 -57 17 -7 46 2 63 20 39 39 32 46
-40 37z"/>
<path d="M264 3679 c-58 -23 -104 -133 -103 -243 l2 -86 29 80 c70 195 171
157 199 -75 13 -108 11 -115 -28 -115 -159 0 -126 -281 42 -350 87 -35 96 -17
25 50 -94 88 -52 237 60 215 59 -11 58 -14 20 78 -17 40 -30 109 -30 154 -1
89 -53 223 -108 279 -39 38 -44 39 -108 13z"/>
<path d="M320 2742 c0 -32 80 -86 109 -75 25 9 46 53 26 53 -3 0 -34 8 -70 19
-36 10 -65 11 -65 3z"/>
<path d="M2028 1552 c114 -462 1533 -534 1866 -95 77 101 71 145 -9 65 -261
-261 -1591 -243 -1817 24 l-54 64 14 -58z"/>
<path d="M4240 1437 c0 -88 -83 -214 -223 -338 -172 -153 -283 -400 -211 -471
8 -8 14 16 14 54 0 76 58 184 138 255 153 136 246 232 270 280 40 76 61 235
34 252 -13 8 -22 -4 -22 -32z"/>
<path d="M1760 1368 c0 -117 56 -208 230 -378 168 -163 227 -249 235 -339 2
-28 11 -51 20 -51 23 0 -5 159 -46 254 -35 81 -141 200 -232 260 -68 44 -167
205 -167 269 0 32 -9 57 -20 57 -11 0 -20 -32 -20 -72z"/>
<path d="M2795 980 c-30 -9 -55 -12 -55 -6 0 6 -12 1 -27 -11 -14 -12 -47 -25
-72 -29 -49 -8 -101 -63 -101 -108 0 -18 19 -14 65 15 231 142 445 147 730 18
103 -47 105 -47 105 -6 0 19 -6 28 -13 20 -8 -7 -30 2 -50 20 -21 18 -37 26
-37 18 0 -9 -15 -4 -32 11 -81 67 -377 101 -513 58z"/>
<path d="M2860 888 c-57 -11 -127 -39 -200 -82 -27 -15 -66 -33 -85 -40 -19
-6 -35 -19 -35 -28 0 -29 60 -20 72 10 8 21 26 24 70 11 36 -10 54 -9 47 2
-17 28 19 23 48 -6 21 -20 25 -20 19 3 -5 21 27 27 148 25 86 -1 160 7 167 19
7 12 27 3 48 -21 36 -42 73 -57 51 -21 -7 11 2 20 19 20 17 0 31 -8 31 -17 0
-10 22 -15 50 -12 27 3 55 -3 61 -13 18 -29 49 -21 37 9 -31 82 -380 172 -548
141z"/>
<path d="M2401 426 c-4 -292 1147 -303 1175 -10 4 36 -3 64 -15 64 -11 0 -21
-21 -21 -47 0 -260 -997 -263 -1112 -3 l-26 60 -1 -64z"/>
</g>
</svg>
